<?xml version="1.0" encoding="UTF-8"?>
<!DOCTYPE score-partwise PUBLIC
  "-//Recordare//DTD MusicXML 3.1 Partwise//EN"
  "http://www.musicxml.org/dtds/partwise.dtd">
<score-partwise version="3.1">
  <work>
    <work-title>C Scale Progression</work-title>
  </work>
  <identification>
    <creator type="composer">John Doe</creator>
  </identification>
  <part-list>
    <score-part id="P1">
      <part-name>Lead</part-name>
    </score-part>
  </part-list>
  <part id="P1">
    <measure number="1">
      <attributes>
        <divisions>1</divisions>
        <key><fifths>0</fifths></key>
        <time><beats>4</beats><beat-type>4</beat-type></time>
        <clef><sign>G</sign><line>2</line></clef>
      </attributes>
      <!-- C major chord -->
      <note><pitch><step>C</step><octave>4</octave></pitch><duration>4</duration></note>
      <note><chord/><pitch><step>E</step><octave>4</octave></pitch><duration>4</duration></note>
      <note><chord/><pitch><step>G</step><octave>4</octave></pitch><duration>4</duration></note>
      <barline location="right"><bar-style>light-heavy</bar-style></barline>
    </measure>
    <measure number="2">
      <!-- D minor chord -->
      <note><pitch><step>D</step><octave>4</octave></pitch><duration>4</duration></note>
      <note><chord/><pitch><step>F</step><octave>4</octave></pitch><duration>4</duration></note>
      <note><chord/><pitch><step>A</step><octave>4</octave></pitch><duration>4</duration></note>
    </measure>
    <measure number="3">
      <!-- E minor chord -->
      <note><pitch><step>E</step><octave>4</octave></pitch><duration>4</duration></note>
      <note><chord/><pitch><step>G</step><octave>4</octave></pitch><duration>4</duration></note>
      <note><chord/><pitch><step>B</step><octave>4</octave></pitch><duration>4</duration></note>
    </measure>
    <measure number="4">
      <!-- F major chord -->
      <note><pitch><step>F</step><octave>4</octave></pitch><duration>4</duration></note>
      <note><chord/><pitch><step>A</step><octave>4</octave></pitch><duration>4</duration></note>
      <note><chord/><pitch><step>C</step><octave>5</octave></pitch><duration>4</duration></note>
    </measure>
    <measure number="5">
      <!-- G major chord -->
      <note><pitch><step>G</step><octave>4</octave></pitch><duration>4</duration></note>
      <note><chord/><pitch><step>B</step><octave>4</octave></pitch><duration>4</duration></note>
      <note><chord/><pitch><step>D</step><octave>5</octave></pitch><duration>4</duration></note>
    </measure>
    <measure number="6">
      <!-- A minor chord -->
      <note><pitch><step>A</step><octave>4</octave></pitch><duration>4</duration></note>
      <note><chord/><pitch><step>C</step><octave>5</octave></pitch><duration>4</duration></note>
      <note><chord/><pitch><step>E</step><octave>5</octave></pitch><duration>4</duration></note>
    </measure>
    <measure number="7">
      <!-- B7 chord (B, D#, F#, A) -->
      <note><pitch><step>B</step><octave>4</octave></pitch><duration>4</duration></note>
      <note><chord/><pitch><step>D</step><alter>1</alter><octave>5</octave></pitch><duration>4</duration></note>
      <note><chord/><pitch><step>F</step><alter>1</alter><octave>5</octave></pitch><duration>4</duration></note>
      <note><chord/><pitch><step>A</step><octave>4</octave></pitch><duration>4</duration></note>
    </measure>
    <measure number="8">
      <!-- C major chord -->
      <note><pitch><step>C</step><octave>4</octave></pitch><duration>4</duration></note>
      <note><chord/><pitch><step>E</step><octave>4</octave></pitch><duration>4</duration></note>
      <note><chord/><pitch><step>G</step><octave>4</octave></pitch><duration>4</duration></note>
      <barline location="right"><bar-style>light-heavy</bar-style></barline>
    </measure>
  </part>
</score-partwise>
